<!-- Generated by IcoMoon.io -->
<svg version="1.1" xmlns="http://www.w3.org/2000/svg" width="1199" height="1024" viewBox="0 0 1199 1024">
<title></title>
<g id="icomoon-ignore">
</g>
<path d="M684.308 580.923c0 0 22.154 24.615 115.692 14.769s88.615-49.231 88.615-49.231 265.846-120.615 307.692-361.846c0 0 12.308-189.538-86.154-187.077 12.308 334.769-283.077 443.077-425.846 583.385v0z"></path>
<path d="M996.923 630.154c-7.385-22.154-39.385-66.462-105.846-41.846s-96 34.462-160 22.154c-61.538-12.308-110.769-61.538-140.308-132.923-29.538-68.923-59.077-142.769-196.923-167.385-135.385-24.615-327.385-189.538-332.308-196.923v0c-19.692 34.462 66.462 155.077 66.462 155.077l-98.462-39.385c-110.769 174.769 253.538 460.308 288 467.692 34.462 4.923 91.077-22.154 91.077-22.154-196.923 123.077-349.538-2.462-349.538-2.462-152.615 167.385 22.154 349.538 209.231 352 187.077 4.923 258.462-120.615 258.462-120.615-93.538-4.923-128-76.308-128-76.308 209.231 196.923 578.462-145.231 578.462-145.231 22.154-24.615 59.077-17.231 59.077-17.231-9.846-34.462-39.385-34.462-39.385-34.462z"></path>
</svg>
