<?xml version="1.0" encoding="utf-8"?>
<!-- Generator: Adobe Illustrator 27.1.1, SVG Export Plug-In . SVG Version: 6.00 Build 0)  -->
<svg version="1.1" id="圖層_1" xmlns="http://www.w3.org/2000/svg" xmlns:xlink="http://www.w3.org/1999/xlink" x="0px" y="0px"
	 viewBox="0 0 233.54 58.53" style="enable-background:new 0 0 233.54 58.53;" xml:space="preserve">
<style type="text/css">
	.st0{opacity:0.6;fill:#A1FFFF;}
</style>
<g>
	<polygon class="st0" points="230.95,42.78 230.45,42.29 216.96,42.29 204.65,54.6 188.51,54.6 185.55,57.56 47.92,57.56 
		44.96,54.6 28.82,54.6 16.51,42.29 3.02,42.29 1.9,43.41 0,45.58 13.41,45.58 26.36,58.53 207.13,58.53 220.08,45.58 233.54,45.58 
			"/>
	<polygon class="st0" points="2.59,15.74 3.08,16.24 16.57,16.24 28.89,3.92 45.02,3.92 47.98,0.97 185.62,0.97 188.57,3.92 
		204.71,3.92 217.02,16.24 230.52,16.24 231.64,15.12 233.54,12.94 220.12,12.94 207.18,0 26.4,0 13.46,12.94 0,12.94 	"/>
</g>
</svg>
