<?xml version="1.0" encoding="utf-8"?>
<!-- Generator: Adobe Illustrator 27.1.1, SVG Export Plug-In . SVG Version: 6.00 Build 0)  -->
<svg version="1.1" id="圖層_1" xmlns="http://www.w3.org/2000/svg" xmlns:xlink="http://www.w3.org/1999/xlink" x="0px" y="0px"
	 viewBox="0 0 61.22 70.23" style="enable-background:new 0 0 61.22 70.23;" xml:space="preserve">
<style type="text/css">
	.st0{fill:#FFFFFF;}
</style>
<g>
	<g>
		<path class="st0" d="M0.56,52.95c-0.19,0-0.38-0.1-0.48-0.28c-0.15-0.27-0.06-0.61,0.21-0.76l13.33-7.65
			c0.27-0.15,0.61-0.06,0.76,0.21c0.15,0.27,0.06,0.61-0.21,0.76L0.83,52.88C0.75,52.93,0.65,52.95,0.56,52.95z"/>
		<path class="st0" d="M60.66,52.95c-0.09,0-0.19-0.02-0.28-0.07l-13.33-7.65c-0.27-0.15-0.36-0.49-0.21-0.76
			c0.15-0.27,0.49-0.36,0.76-0.21l13.33,7.65c0.27,0.15,0.36,0.49,0.21,0.76C61.04,52.85,60.85,52.95,60.66,52.95z"/>
		<path class="st0" d="M30.61,70.23c-0.09,0-0.19-0.02-0.28-0.07L0.28,52.88c-0.27-0.15-0.36-0.49-0.21-0.76
			c0.15-0.27,0.49-0.36,0.76-0.21L30.88,69.2c0.27,0.15,0.36,0.49,0.21,0.76C30.99,70.13,30.8,70.23,30.61,70.23z"/>
		<path class="st0" d="M25.47,51.96c-0.09,0-0.19-0.02-0.28-0.07l-11.58-6.66c-0.27-0.15-0.36-0.49-0.21-0.76
			c0.15-0.27,0.49-0.36,0.76-0.21l11.58,6.66c0.27,0.15,0.36,0.49,0.21,0.76C25.85,51.86,25.66,51.96,25.47,51.96z"/>
		<path class="st0" d="M35.75,51.96c-0.19,0-0.38-0.1-0.48-0.28c-0.15-0.27-0.06-0.61,0.21-0.76l11.58-6.66
			c0.27-0.15,0.6-0.06,0.76,0.21c0.15,0.27,0.06,0.61-0.21,0.76l-11.58,6.66C35.94,51.94,35.84,51.96,35.75,51.96z"/>
		<path class="st0" d="M14.08,44.69c-0.31,0-0.56-0.25-0.56-0.56V32.11c0-0.31,0.25-0.56,0.56-0.56c0.31,0,0.56,0.25,0.56,0.56
			v12.02C14.63,44.44,14.39,44.69,14.08,44.69z"/>
		<path class="st0" d="M30.61,16.46c-0.31,0-0.56-0.25-0.56-0.56V0.56C30.05,0.25,30.3,0,30.61,0c0.31,0,0.56,0.25,0.56,0.56V15.9
			C31.16,16.21,30.92,16.46,30.61,16.46z"/>
		<path class="st0" d="M0.56,18.39c-0.19,0-0.38-0.1-0.48-0.28c-0.15-0.27-0.06-0.61,0.21-0.76L30.33,0.07
			c0.26-0.15,0.6-0.06,0.76,0.21c0.15,0.27,0.06,0.61-0.21,0.76L0.83,18.32C0.75,18.37,0.65,18.39,0.56,18.39z"/>
		<path class="st0" d="M60.66,18.39c-0.09,0-0.19-0.02-0.28-0.07L30.33,1.04c-0.27-0.15-0.36-0.49-0.21-0.76
			c0.15-0.27,0.49-0.36,0.76-0.21l30.05,17.28c0.27,0.15,0.36,0.49,0.21,0.76C61.04,18.29,60.85,18.39,60.66,18.39z"/>
		<path class="st0" d="M60.66,52.95c-0.31,0-0.56-0.25-0.56-0.56V18.59c0-0.31,0.25-0.56,0.56-0.56c0.31,0,0.56,0.25,0.56,0.56V52.4
			C61.22,52.7,60.97,52.95,60.66,52.95z"/>
		<path class="st0" d="M30.61,70.23c-0.1,0-0.19-0.02-0.28-0.07c-0.17-0.1-0.28-0.28-0.28-0.48V35.37L1.11,18.79v33.6
			c0,0.31-0.25,0.56-0.56,0.56S0,52.7,0,52.4V17.84c0-0.2,0.11-0.38,0.28-0.48c0.17-0.1,0.38-0.1,0.55,0l30.05,17.21
			c0.17,0.1,0.28,0.28,0.28,0.48v33.67l29.22-16.8c0.27-0.15,0.61-0.06,0.76,0.21c0.15,0.27,0.06,0.61-0.21,0.76L30.88,70.16
			C30.8,70.21,30.7,70.23,30.61,70.23z"/>
		<path class="st0" d="M30.61,35.6c-0.19,0-0.38-0.1-0.48-0.28c-0.15-0.27-0.06-0.61,0.21-0.76l30.05-17.21
			c0.27-0.15,0.61-0.06,0.76,0.21c0.15,0.27,0.06,0.61-0.21,0.76L30.88,35.53C30.8,35.58,30.7,35.6,30.61,35.6z"/>
		<path class="st0" d="M47.15,26.13c-0.1,0-0.19-0.02-0.28-0.08l-16.26-9.51l-16.26,9.51c-0.27,0.16-0.61,0.07-0.76-0.2
			c-0.15-0.26-0.07-0.61,0.2-0.76l16.54-9.67c0.17-0.1,0.39-0.1,0.56,0l16.54,9.67c0.26,0.15,0.35,0.5,0.2,0.76
			C47.53,26.03,47.34,26.13,47.15,26.13z"/>
		<path class="st0" d="M47.14,44.69c-0.31,0-0.56-0.25-0.56-0.56V32.11c0-0.31,0.25-0.56,0.56-0.56s0.56,0.25,0.56,0.56v12.02
			C47.69,44.44,47.44,44.69,47.14,44.69z"/>
	</g>
</g>
</svg>
