<?xml version="1.0" encoding="utf-8"?>
<!-- Generator: Adobe Illustrator 27.1.1, SVG Export Plug-In . SVG Version: 6.00 Build 0)  -->
<svg version="1.1" id="圖層_2" xmlns="http://www.w3.org/2000/svg" xmlns:xlink="http://www.w3.org/1999/xlink" x="0px" y="0px"
	 viewBox="0 0 48.7 41.6" style="enable-background:new 0 0 48.7 41.6;" xml:space="preserve">
<style type="text/css">
	.st0{fill-rule:evenodd;clip-rule:evenodd;fill:#F70D0D;}
	.st1{fill:#F70D0D;}
	.st2{fill-rule:evenodd;clip-rule:evenodd;fill:#F46221;}
	.st3{fill:#F46221;}
	.st4{fill-rule:evenodd;clip-rule:evenodd;fill:#F9D816;}
	.st5{fill:#F9D816;}
	.st6{fill-rule:evenodd;clip-rule:evenodd;fill:#14D9F4;}
	.st7{fill:#14D9F4;}
	.st8{fill-rule:evenodd;clip-rule:evenodd;fill:#6DCE65;}
	.st9{fill:#6DCE65;}
	.st10{fill-rule:evenodd;clip-rule:evenodd;fill:#1092E2;}
	.st11{fill:#1092E2;}
	.st12{fill-rule:evenodd;clip-rule:evenodd;fill:#E823C3;}
	.st13{fill:#E823C3;}
</style>
<g>
	<path class="st0" d="M27.8,23.6c0,0,0.9,1,4.7,0.6c3.8-0.4,3.6-2,3.6-2s10.8-4.9,12.5-14.7c0,0,0.5-7.7-3.5-7.6
		C45.6,13.5,33.6,17.9,27.8,23.6L27.8,23.6z"/>
	<path class="st1" d="M40.5,25.6c-0.3-0.9-1.6-2.7-4.3-1.7c-2.7,1-3.9,1.4-6.5,0.9c-2.5-0.5-4.5-2.5-5.7-5.4c-1.2-2.8-2.4-5.8-8-6.8
		c-5.5-1-13.3-7.7-13.5-8l0,0C1.7,6,5.2,10.9,5.2,10.9l-4-1.6c-4.5,7.1,10.3,18.7,11.7,19c1.4,0.2,3.7-0.9,3.7-0.9
		c-8,5-14.2-0.1-14.2-0.1c-6.2,6.8,0.9,14.2,8.5,14.3c7.6,0.2,10.5-4.9,10.5-4.9c-3.8-0.2-5.2-3.1-5.2-3.1c8.5,8,23.5-5.9,23.5-5.9
		c0.9-1,2.4-0.7,2.4-0.7C41.7,25.6,40.5,25.6,40.5,25.6z"/>
</g>
</svg>
